<svg xmlns="http://www.w3.org/2000/svg">
    <symbol id="icon-showcase" viewBox="0 0 32 32">
        <g style="fill-rule:evenodd;clip-rule:evenodd;stroke-linejoin:round;stroke-miterlimit:2;">
            <g>
                <path d="M1.385,7.319l0,-0.029c0.424,-0.565 0.933,-1.046 1.527,-1.498l0,0.028c0.481,0.368 0.961,0.764 1.414,1.159c0.198,-0.113 0.367,-0.198 0.537,-0.282c0.226,-0.113 0.452,-0.227 0.707,-0.283c0.084,-0.028 0.169,-0.057 0.254,-0.057c0.057,-0.622 0.113,-1.244 0.198,-1.866c0.283,-0.056 0.565,-0.056 0.876,-0.084l0.453,0c0.282,0.028 0.537,0.028 0.791,0.084c0.085,0.594 0.142,1.216 0.17,1.838c0.113,0 0.198,0.028 0.311,0.057c0.028,0 0.056,0 0.085,0.028c0.226,0.056 0.452,0.17 0.678,0.283c0.198,0.084 0.368,0.169 0.537,0.282c0.481,-0.395 0.933,-0.763 1.414,-1.159l0.028,-0.028c0.113,0.085 0.226,0.17 0.311,0.254c0.198,0.142 0.368,0.311 0.509,0.481c0.255,0.226 0.453,0.509 0.679,0.792l-0.029,0c-0.367,0.48 -0.763,0.933 -1.159,1.413c0.113,0.17 0.226,0.368 0.311,0.537c0.113,0.227 0.198,0.481 0.255,0.707c0.056,0.113 0.085,0.226 0.085,0.311c0.622,0.057 1.244,0.113 1.837,0.198c0.057,0.283 0.085,0.566 0.085,0.877c0,0.424 -0.028,0.848 -0.113,1.243c-0.594,0.057 -1.187,0.114 -1.809,0.17c0,0.113 -0.029,0.226 -0.085,0.311c-0.057,0.255 -0.142,0.481 -0.255,0.735c-0.113,0.198 -0.198,0.396 -0.339,0.566c0.396,0.48 0.792,0.933 1.159,1.413c-0.424,0.594 -0.933,1.103 -1.527,1.527l0,-0.028c-0.452,-0.368 -0.932,-0.764 -1.385,-1.16l-0.028,0c-0.141,0.085 -0.311,0.17 -0.452,0.255c-0.255,0.113 -0.538,0.226 -0.792,0.283c-0.113,0.028 -0.198,0.056 -0.283,0.084c-0.056,0.594 -0.113,1.216 -0.198,1.838c-0.254,0.028 -0.509,0.057 -0.791,0.057l-0.424,0c-0.311,0 -0.622,-0.029 -0.933,-0.085c-0.057,-0.594 -0.113,-1.216 -0.17,-1.838c-0.085,-0.028 -0.17,-0.056 -0.254,-0.085c-0.255,-0.056 -0.481,-0.141 -0.707,-0.254c-0.198,-0.085 -0.396,-0.198 -0.594,-0.339c0,0.028 0,0.028 -0.028,0.028c-0.453,0.396 -0.933,0.792 -1.414,1.159c-0.085,-0.056 -0.169,-0.113 -0.283,-0.198c-0.169,-0.141 -0.339,-0.311 -0.48,-0.48c-0.255,-0.255 -0.509,-0.538 -0.735,-0.849c0.396,-0.48 0.791,-0.961 1.187,-1.413l0,-0.028c-0.085,-0.142 -0.169,-0.311 -0.254,-0.481c-0.085,-0.226 -0.198,-0.452 -0.255,-0.679c0,-0.028 0,-0.056 -0.028,-0.056c0,-0.113 -0.028,-0.198 -0.057,-0.255c-0.621,-0.056 -1.243,-0.113 -1.837,-0.169c-0.057,-0.283 -0.057,-0.566 -0.085,-0.848l0,-0.481c0.028,-0.283 0.028,-0.565 0.085,-0.848c0.594,-0.057 1.216,-0.113 1.837,-0.17c0.029,-0.085 0.057,-0.169 0.057,-0.254c0.085,-0.255 0.17,-0.509 0.283,-0.764c0.085,-0.169 0.198,-0.367 0.282,-0.537c-0.367,-0.452 -0.763,-0.933 -1.159,-1.413Zm7.549,2.346c-0.509,-0.537 -1.131,-0.791 -1.838,-0.763c-0.735,-0.028 -1.329,0.226 -1.866,0.763c-0.509,0.509 -0.763,1.131 -0.763,1.838c0,0.735 0.254,1.329 0.763,1.866c0.537,0.509 1.131,0.763 1.866,0.763c0.707,0 1.329,-0.254 1.838,-0.763c0.509,-0.537 0.763,-1.131 0.763,-1.866c0,-0.707 -0.254,-1.329 -0.763,-1.838Z" style="fill-rule:nonzero;stroke-width:0.33px;"/>
                <path d="M7.068,9.269c0.622,0 1.131,0.227 1.583,0.651c0.424,0.452 0.65,0.961 0.65,1.583c0,0.622 -0.226,1.131 -0.65,1.583c-0.452,0.452 -0.961,0.679 -1.583,0.679c-0.622,0 -1.131,-0.227 -1.583,-0.679c-0.453,-0.452 -0.651,-0.961 -0.651,-1.583c0,-0.622 0.198,-1.131 0.651,-1.583c0.452,-0.424 0.961,-0.651 1.583,-0.651Zm1.187,1.046c-0.339,-0.311 -0.735,-0.48 -1.187,-0.48c-0.452,0 -0.848,0.169 -1.187,0.48c-0.34,0.34 -0.481,0.707 -0.481,1.188c0,0.481 0.141,0.876 0.481,1.187c0.339,0.34 0.735,0.509 1.187,0.509c0.452,0 0.848,-0.169 1.187,-0.509c0.311,-0.311 0.481,-0.706 0.481,-1.187c0,-0.452 -0.17,-0.848 -0.481,-1.188Z" style="fill-rule:nonzero;stroke-width:0.33px;"/>
                <path d="M14.334,13.906c0.113,-0.057 0.198,-0.085 0.283,-0.085c0.339,-0.085 0.678,-0.141 1.017,-0.198c0.311,0.764 0.566,1.499 0.82,2.234l0.509,0c0.339,0.028 0.65,0.056 0.961,0.113c0.255,0.028 0.509,0.113 0.764,0.198c0.452,-0.651 0.933,-1.301 1.385,-1.923l0.028,-0.028c0.17,0.057 0.34,0.113 0.481,0.198c0.283,0.113 0.537,0.254 0.792,0.424c0.395,0.198 0.763,0.452 1.102,0.763l0,0.029c-0.339,0.706 -0.65,1.413 -0.989,2.12c0.198,0.198 0.367,0.368 0.537,0.594c0.226,0.226 0.424,0.509 0.594,0.791c0.084,0.113 0.141,0.226 0.197,0.368c0.792,-0.142 1.584,-0.283 2.375,-0.396c0.142,0.339 0.283,0.679 0.396,1.046c0.113,0.566 0.226,1.103 0.283,1.64l-2.205,0.848l0,0.396c0,0.311 -0.029,0.65 -0.114,0.989c-0.028,0.283 -0.113,0.566 -0.197,0.848c0.65,0.453 1.272,0.905 1.922,1.386c-0.339,0.848 -0.82,1.64 -1.385,2.375l-0.029,0c-0.706,-0.34 -1.413,-0.651 -2.148,-0.99c-0.17,0.17 -0.339,0.311 -0.509,0.481c-0.255,0.226 -0.566,0.424 -0.905,0.622c-0.085,0.056 -0.198,0.113 -0.311,0.198c0.142,0.763 0.255,1.555 0.368,2.346c-0.311,0.142 -0.622,0.255 -0.961,0.339c-0.085,0.029 -0.255,0.085 -0.538,0.142c-0.395,0.113 -0.791,0.169 -1.159,0.226c-0.311,-0.763 -0.594,-1.498 -0.848,-2.262l-0.367,0c-0.34,0 -0.651,-0.028 -0.962,-0.085c-0.282,-0.056 -0.565,-0.141 -0.848,-0.226c0,0 0,0.029 -0.028,0.029c-0.453,0.65 -0.933,1.3 -1.385,1.95c-0.142,-0.085 -0.283,-0.141 -0.396,-0.198c-0.283,-0.113 -0.537,-0.254 -0.792,-0.395c-0.424,-0.255 -0.82,-0.538 -1.187,-0.849c0.311,-0.735 0.65,-1.441 0.989,-2.177c-0.169,-0.169 -0.311,-0.339 -0.48,-0.508c-0.198,-0.255 -0.396,-0.538 -0.566,-0.792c0,-0.028 -0.028,-0.057 -0.028,-0.085c-0.057,-0.085 -0.113,-0.198 -0.17,-0.283c-0.791,0.142 -1.583,0.255 -2.375,0.396c-0.141,-0.339 -0.254,-0.678 -0.367,-1.046c-0.028,-0.085 -0.057,-0.169 -0.085,-0.283c-0.028,-0.084 -0.028,-0.169 -0.085,-0.282c-0.056,-0.368 -0.141,-0.735 -0.169,-1.075c0.735,-0.311 1.498,-0.565 2.233,-0.848l0,-0.339c0,-0.339 0.028,-0.707 0.113,-1.046c0.028,-0.254 0.113,-0.509 0.17,-0.763c-0.65,-0.453 -1.301,-0.933 -1.923,-1.414l-0.028,0c0.339,-0.848 0.792,-1.64 1.414,-2.375c0.735,0.311 1.441,0.65 2.148,0.99c0.198,-0.198 0.396,-0.396 0.594,-0.566c0.254,-0.198 0.509,-0.396 0.792,-0.537c0.084,-0.085 0.198,-0.141 0.282,-0.198c-0.113,-0.791 -0.254,-1.583 -0.367,-2.375c0.339,-0.141 0.707,-0.282 1.074,-0.395c0.085,-0.029 0.198,-0.057 0.283,-0.057Zm5.258,10.574c0.481,-0.82 0.594,-1.668 0.34,-2.573c-0.227,-0.905 -0.764,-1.583 -1.584,-2.064c-0.791,-0.452 -1.668,-0.565 -2.544,-0.339c-0.905,0.254 -1.612,0.763 -2.064,1.583c-0.48,0.82 -0.594,1.668 -0.339,2.573c0.226,0.904 0.763,1.583 1.555,2.035c0.848,0.481 1.696,0.594 2.573,0.34c0.904,-0.227 1.611,-0.764 2.063,-1.555Z" style="fill-rule:nonzero;stroke-width:0.33px;"/>
                <path d="M19.423,22.048c0.226,0.764 0.141,1.499 -0.255,2.177l-0.028,0c-0.396,0.707 -0.989,1.131 -1.753,1.357c-0.763,0.198 -1.498,0.113 -2.205,-0.282c-0.707,-0.425 -1.131,-0.99 -1.357,-1.753l0,-0.029c-0.198,-0.763 -0.085,-1.498 0.311,-2.176c0.396,-0.707 0.989,-1.16 1.753,-1.358c0.763,-0.226 1.526,-0.113 2.205,0.283c0.707,0.396 1.131,0.99 1.329,1.781Zm-1.697,-1.131c-0.537,-0.311 -1.074,-0.395 -1.639,-0.226c-0.566,0.142 -1.018,0.481 -1.329,1.018c-0.311,0.509 -0.368,1.074 -0.226,1.64c0.169,0.565 0.509,1.018 1.018,1.3l0,0.029c0.537,0.282 1.074,0.367 1.639,0.197c0.594,-0.141 1.018,-0.48 1.329,-1.017c0.283,-0.509 0.368,-1.046 0.226,-1.64c-0.169,-0.566 -0.509,-0.99 -1.018,-1.301Z" style="fill-rule:nonzero;stroke-width:0.33px;"/>
            </g>
            <path d="M32,6.739l-6,6l0,-12l6,6Z"/>
            <path d="M25.94,7.903c-2.836,0 -5.622,0.114 -8.347,0.933c-0.977,0.293 -2.32,0.869 -2.487,2.015c0.273,-5.277 6.72,-6.335 10.895,-6.335l-0.061,3.387" style="stroke-width:0.67px;stroke-linecap:round;stroke-miterlimit:1;"/>
        </g>
    </symbol>
</svg>
